<svg xmlns="http://www.w3.org/2000/svg" viewBox="0 0 32 32" fill="none">
  <defs>
    <linearGradient id="g" x1="4" y1="4" x2="28" y2="28">
      <stop stop-color="#5b5fe8"/>
      <stop offset=".5" stop-color="#8b5cf6"/>
      <stop offset="1" stop-color="#06b6d4"/>
    </linearGradient>
  </defs>
  <circle cx="16" cy="16" r="14" stroke="url(#g)" stroke-width="2" opacity=".35"/>
  <ellipse cx="16" cy="16" rx="11" ry="5" stroke="url(#g)" stroke-width="1.75" transform="rotate(-24 16 16)"/>
  <ellipse cx="16" cy="16" rx="11" ry="5" stroke="url(#g)" stroke-width="1.75" transform="rotate(24 16 16)"/>
  <circle cx="16" cy="16" r="5.5" fill="url(#g)"/>
  <path
    d="M13.4 14.8h5.2c.55 0 1 .45 1 1v2.8c0 .55-.45 1-1 1h-5.2c-.55 0-1-.45-1-1v-2.8c0-.55.45-1 1-1Z"
    fill="#fff"
    opacity=".95"
  />
  <path
    d="M13.4 15.5 16 17.2 18.6 15.5"
    stroke="#5b5fe8"
    stroke-width=".9"
    stroke-linecap="round"
    stroke-linejoin="round"
  />
</svg>
