<svg xmlns="http://www.w3.org/2000/svg" viewBox="0 0 512 512" fill="none">
  <defs>
    <linearGradient id="orbit-gradient" x1="96" y1="64" x2="416" y2="448">
      <stop stop-color="#5b5fe8"/>
      <stop offset="0.52" stop-color="#8b5cf6"/>
      <stop offset="1" stop-color="#06b6d4"/>
    </linearGradient>
    <linearGradient id="bg-gradient" x1="64" y1="32" x2="448" y2="480">
      <stop stop-color="#1e1e24"/>
      <stop offset="1" stop-color="#121218"/>
    </linearGradient>
  </defs>
  <rect width="512" height="512" rx="112" fill="url(#bg-gradient)"/>
  <circle cx="256" cy="256" r="168" stroke="url(#orbit-gradient)" stroke-width="18" opacity="0.35"/>
  <ellipse cx="256" cy="256" rx="132" ry="56" stroke="url(#orbit-gradient)" stroke-width="14" transform="rotate(-24 256 256)"/>
  <ellipse cx="256" cy="256" rx="132" ry="56" stroke="url(#orbit-gradient)" stroke-width="14" transform="rotate(24 256 256)"/>
  <circle cx="256" cy="256" r="72" fill="url(#orbit-gradient)"/>
  <path
    d="M214 236h84c8.8 0 16 7.2 16 16v36c0 8.8-7.2 16-16 16h-84c-8.8 0-16-7.2-16-16v-36c0-8.8 7.2-16 16-16Z"
    fill="#ffffff"
    opacity="0.96"
  />
  <path
    d="M214 248 256 276 298 248"
    stroke="#5b5fe8"
    stroke-width="10"
    stroke-linecap="round"
    stroke-linejoin="round"
  />
</svg>
